<svg xmlns="http://www.w3.org/2000/svg" xmlns:cc="http://web.resource.org/cc/" xmlns:svg="http://www.w3.org/2000/svg" xmlns:xlink="http://www.w3.org/1999/xlink" id="svg1925" width="345.231" height="350.809" version="1.0"><defs id="defs1927"><linearGradient id="linearGradient5638" x1="139.431" x2="222.738" y1="520.742" y2="520.742" gradientTransform="matrix(0.545558,0,0,0.350255,236.4833,37.6074)" gradientUnits="userSpaceOnUse" xlink:href="#linearGradient4073"/><linearGradient id="linearGradient6854"><stop style="stop-color:#ffffe0;stop-opacity:1" id="stop6856" offset="0"/><stop style="stop-color:#ff0;stop-opacity:1" id="stop6858" offset="1"/></linearGradient><linearGradient id="linearGradient5636" x1="221.022" x2="296.726" y1="421.623" y2="571.529" gradientTransform="matrix(1.334164,0,0,1.334164,54.71699,-442.514)" gradientUnits="userSpaceOnUse" xlink:href="#linearGradient6854"/><linearGradient id="linearGradient5634" x1="139.63" x2="222.738" y1="520.742" y2="520.742" gradientTransform="matrix(0.545558,0,0,0.350255,91.4834,-57.3926)" gradientUnits="userSpaceOnUse" xlink:href="#linearGradient4073"/><linearGradient id="linearGradient6848"><stop style="stop-color:#00f;stop-opacity:1" id="stop6850" offset="0"/><stop style="stop-color:#e0e0ff;stop-opacity:1" id="stop6852" offset="1"/></linearGradient><linearGradient id="linearGradient5632" x1="296.203" x2="220.845" y1="571.529" y2="421.623" gradientTransform="matrix(1.334164,0,0,1.334164,-90.28301,-537.514)" gradientUnits="userSpaceOnUse" xlink:href="#linearGradient6848"/><linearGradient id="linearGradient4073"><stop style="stop-color:#fff;stop-opacity:1" id="stop4075" offset="0"/><stop style="stop-color:#fff;stop-opacity:0" id="stop4077" offset="1"/></linearGradient><linearGradient id="linearGradient5630" x1="139.431" x2="222.739" y1="520.743" y2="520.743" gradientTransform="matrix(0.545556,0,0,0.350255,-38.51666,72.6073)" gradientUnits="userSpaceOnUse" xlink:href="#linearGradient4073"/><linearGradient id="linearGradient8721"><stop style="stop-color:red;stop-opacity:1" id="stop12145" offset="0"/><stop id="stop8725" offset="1" style="stop-color:#ffe0e0;stop-opacity:1"/></linearGradient><linearGradient id="linearGradient5628" x1="221.016" x2="119.923" y1="674.085" y2="474.091" gradientTransform="matrix(1.000031,0,0,1.000031,-45.00832,-319.1057)" gradientUnits="userSpaceOnUse" xlink:href="#linearGradient8721"/></defs><metadata id="metadata1930"/><g id="layer1" transform="translate(-15.9557,-11.2434)"><g id="g5577" transform="translate(184.4642,1.713451)"><path id="path2858" d="M 194 279 A 160 160 0 1 1 -126,279 A 160 160 0 1 1 194 279 z" transform="matrix(1.023771,0,0,1.023771,-37.97774,-90.6321)" style="fill:none;stroke:#000;stroke-width:2.99991989;stroke-linecap:round;stroke-linejoin:round;stroke-miterlimit:4;stroke-dasharray:2.99991984,8.99975952;stroke-dashoffset:0;stroke-opacity:1;display:inline"/><path id="path2847" d="M 171 186.5 A 146.5 146.5 0 1 1 -122,186.5 A 146.5 146.5 0 1 1 171 186.5 z" transform="translate(-27.66953,8.500009)" style="fill:none;stroke-width:3;stroke-linecap:round;stroke-linejoin:round;stroke-miterlimit:4;stroke-dasharray:3,9;stroke-dashoffset:0;display:inline"/><path id="path2849" d="M 63 174 A 42 84 0 1 1 -21,174 A 42 84 0 1 1 63 174 z" transform="translate(-24.16953,21.00001)" style="fill:none;stroke-width:3;stroke-linecap:round;stroke-linejoin:round;stroke-miterlimit:4;stroke-dasharray:3,9;stroke-dashoffset:0;display:inline"/><g id="g2051" transform="matrix(0.5,0,0,0.5,-134.4196,100)"><path style="fill:url(#linearGradient5628);fill-opacity:1;fill-rule:nonzero;stroke:none;stroke-width:38;stroke-linecap:butt;stroke-linejoin:round;marker-start:none;stroke-miterlimit:20;stroke-dasharray:none;stroke-dashoffset:0;stroke-opacity:1;display:inline" id="rect1393" d="M 69.33962,154.99997 L 180.66039,154.99997 C 205.22454,154.99997 225,174.77544 225,199.33959 L 225,310.66037 C 225,335.22451 205.22454,354.99998 180.66039,354.99998 L 69.33962,354.99998 C 44.775476,354.99998 25,335.22451 25,310.66037 L 25,199.33959 C 25,174.77544 44.775476,154.99997 69.33962,154.99997 z"/><path style="opacity:.25;fill:red;fill-opacity:1;fill-rule:evenodd;stroke:none;stroke-width:1px;stroke-linecap:butt;stroke-linejoin:miter;stroke-opacity:1;display:inline" id="path2231" d="M 182.05654,230.00562 C 133.52565,230.53078 120.26069,286.69673 77.15765,287.25526 C 58.52185,287.49067 42.627272,274.70086 25.000051,259.55648 L 25.000051,311.20874 C 25.000051,335.45743 44.796904,355.00001 69.36112,354.99998 L 180.68067,354.99998 C 205.24489,354.99998 225.00005,335.45745 225.00005,311.20874 L 225.00005,240.95343 C 212.96769,234.34675 199.0342,229.81756 182.05654,230.00562 z"/><rect style="fill:url(#linearGradient5630);fill-opacity:1;fill-rule:nonzero;stroke:none;stroke-width:20;stroke-linecap:butt;stroke-linejoin:miter;stroke-miterlimit:4;stroke-dasharray:none;stroke-dashoffset:0;stroke-opacity:.25098039;display:inline" id="rect3182" width="33" height="150" x="50" y="180" rx="17.033" ry="17.033"/><path style="opacity:1;fill:none;fill-opacity:.50196078;fill-rule:nonzero;stroke:maroon;stroke-width:12.68599987;stroke-linecap:butt;stroke-linejoin:round;marker-start:none;stroke-miterlimit:20;stroke-dasharray:none;stroke-dashoffset:0;stroke-opacity:.50196078;display:inline" id="path37247" d="M 69.46811,161.34322 L 180.66022,161.34322 C 201.78838,161.34322 218.65712,178.22195 218.65712,199.34917 L 218.65712,310.66948 C 218.65712,331.80447 201.79163,348.657 180.66022,348.657 L 69.3399,348.657 C 48.208398,348.657 31.343,331.79658 31.343,310.66948 L 31.343,199.31104 C 31.343,178.17908 48.33351,161.34322 69.46811,161.34322 z"/><path style="fill:url(#linearGradient5632);fill-opacity:1;fill-rule:nonzero;stroke:none;stroke-width:38.28099823;stroke-linecap:butt;stroke-linejoin:miter;marker-start:none;stroke-miterlimit:4;stroke-dasharray:none;stroke-dashoffset:0;stroke-opacity:.37647059;display:inline" id="path5922" d="M 199.33962,24.99998 L 310.6604,24.99998 C 335.22455,24.99998 355,44.77545 355,69.33958 L 355,180.66037 C 355,205.22451 335.22455,224.99998 310.6604,224.99998 L 199.33962,224.99998 C 174.77548,224.99998 155,205.22451 155,180.66037 L 155,69.33958 C 155,44.77545 174.77548,24.99998 199.33962,24.99998 z"/><path style="opacity:.25;fill:#00f;fill-opacity:1;fill-rule:evenodd;stroke:none;stroke-width:1px;stroke-linecap:butt;stroke-linejoin:miter;stroke-opacity:1;display:inline" id="path5924" d="M 312.05649,100.00562 C 263.5256,100.5308 250.26065,156.69674 207.1576,157.25527 C 188.52179,157.49067 172.62722,144.70086 155,129.55648 L 155,181.20875 C 155,205.45743 174.79685,225.00001 199.36106,224.99998 L 310.68063,224.99998 C 335.24483,224.99998 355,205.45745 355,181.20875 L 355,110.95344 C 342.96764,104.34675 329.03415,99.81756 312.05649,100.00562 z"/><rect style="fill:url(#linearGradient5634);fill-opacity:1;fill-rule:nonzero;stroke:none;stroke-width:20;stroke-linecap:butt;stroke-linejoin:miter;stroke-miterlimit:4;stroke-dasharray:none;stroke-dashoffset:0;stroke-opacity:.25098039;display:inline" id="rect5926" width="33" height="150" x="180" y="50" rx="17.033" ry="17.033"/><path id="path41636" d="M 199.46811,31.34322 L 310.66022,31.34322 C 331.78838,31.34322 348.65712,48.22195 348.65712,69.34917 L 348.65712,180.66948 C 348.65712,201.80447 331.79163,218.657 310.66022,218.657 L 199.3399,218.657 C 178.2084,218.657 161.343,201.79658 161.343,180.66948 L 161.343,69.31104 C 161.343,48.17908 178.33351,31.34322 199.46811,31.34322 z" style="opacity:1;fill:none;fill-opacity:.50196078;fill-rule:nonzero;stroke:navy;stroke-width:12.68599987;stroke-linecap:butt;stroke-linejoin:round;marker-start:none;stroke-miterlimit:20;stroke-dasharray:none;stroke-dashoffset:0;stroke-opacity:.50196078;display:inline"/><path style="fill:url(#linearGradient5636);fill-opacity:1;fill-rule:nonzero;stroke:none;stroke-width:38.28144073;stroke-linecap:butt;stroke-linejoin:miter;marker-start:none;stroke-miterlimit:4;stroke-dasharray:none;stroke-dashoffset:0;stroke-opacity:.37647059;display:inline" id="path5936" d="M 344.33962,119.99997 L 455.66039,119.99997 C 480.22454,119.99997 500,139.77544 500,164.33959 L 500,275.66037 C 500,300.22451 480.22454,319.99998 455.66039,319.99998 L 344.33962,319.99998 C 319.77547,319.99998 300,300.22451 300,275.66037 L 300,164.33959 C 300,139.77544 319.77547,119.99997 344.33962,119.99997 z"/><path style="opacity:.25;fill:#c0c000;fill-opacity:1;fill-rule:evenodd;stroke:none;stroke-width:1px;stroke-linecap:butt;stroke-linejoin:miter;stroke-opacity:1;display:inline" id="path5938" d="M 457.05649,195.00562 C 408.5256,195.53079 395.26065,251.69673 352.1576,252.25526 C 333.52179,252.49067 317.62722,239.70086 300,224.55647 L 300,276.20875 C 300,300.45743 319.79685,320.00001 344.36106,319.99998 L 455.68063,319.99998 C 480.24484,319.99998 500,300.45745 500,276.20875 L 500,205.95343 C 487.96764,199.34674 474.03416,194.81756 457.05649,195.00562 z"/><rect style="fill:url(#linearGradient5638);fill-opacity:1;fill-rule:nonzero;stroke:none;stroke-width:20;stroke-linecap:butt;stroke-linejoin:miter;stroke-miterlimit:4;stroke-dasharray:none;stroke-dashoffset:0;stroke-opacity:.25098039;display:inline" id="rect5940" width="33" height="150" x="325" y="145" rx="17.033" ry="17.033"/><path style="opacity:1;fill:none;fill-opacity:.50196078;fill-rule:nonzero;stroke:olive;stroke-width:12.68599987;stroke-linecap:butt;stroke-linejoin:round;marker-start:none;stroke-miterlimit:20;stroke-dasharray:none;stroke-dashoffset:0;stroke-opacity:.50196078;display:inline" id="path42512" d="M 344.46811,126.34322 L 455.66022,126.34322 C 476.78838,126.34322 493.65712,143.22195 493.65712,164.34917 L 493.65712,275.66948 C 493.65712,296.80447 476.79163,313.657 455.66022,313.657 L 344.3399,313.657 C 323.2084,313.657 306.343,296.79658 306.343,275.66948 L 306.343,164.31104 C 306.343,143.17908 323.33351,126.34322 344.46811,126.34322 z"/></g></g><g id="g2250" transform="translate(-475.9735,226.5735)"><circle id="circle2226" cx="99" cy="100" r="65" transform="translate(673.1606,-250.3301)" style="fill:navy"/><circle id="circle2228" cx="125" cy="73" r="19" transform="translate(673.1606,-250.3301)" style="fill:#fff"/><text id="text2232" x="722.161" y="-118.33" font-size="60" font-weight="normal" style="font-size:60px;font-weight:400;fill:#fff;font-family:Arial">Lua</text></g></g></svg>